<svg xmlns="http://www.w3.org/2000/svg" fill="none" viewBox="0 0 250 250">
  <g fill="#F2F4F7" clip-path="url(#a)">
    <path d="M61.036 6.762c-1.248 10.456-4.923 23.213-6.726 23.213-.485 0-3.813-1.394-7.35-3.067-5.686-2.649-14.353-5.298-17.543-5.298-.832 0-.416 1.255 1.595 5.368 3.05 6.204 5.824 15.894 5.478 19.24l-.208 2.23-6.241.488c-18.167 1.395-26.696 2.231-26.696 2.58 0 .279 3.05 3.555 6.795 7.389 7.003 7.11 12.135 14.709 11.788 17.358-.139.976-3.675 3.903-10.956 8.992C5.078 89.368.155 93.063.016 93.412c-.138.348.624.836 1.734 1.115 7.42 1.603 10.609 2.648 13.244 4.182 3.606 2.161 7.35 5.368 9.222 8.017l1.387 1.952-7.766 7.738c-6.518 6.552-7.628 7.877-6.796 8.644.555.488 4.716 2.091 9.292 3.485 4.577 1.394 8.599 2.859 8.945 3.207.347.348-.208 3.904-1.525 8.783-1.18 4.531-1.942 8.505-1.734 8.853.347.628 11.788.07 13.66-.627 1.734-.627 2.427 1.046 2.913 6.553.277 3.207.693 5.925.97 6.064.555.349 8.322-2.997 8.322-3.555 0-.209-.902-1.673-2.011-3.276-3.19-4.671-5.34-9.481-7.35-16.173-.971-3.485-2.428-8.156-3.12-10.456-.764-2.3-1.526-5.437-1.665-6.971-.97-7.389-1.11-10.108-.416-10.108.346 0 .693 1.185.693 2.579.07 3.137 1.595 11.502 2.635 14.5.416 1.115 1.734 5.228 2.913 9.062 2.843 8.993 6.934 17.079 10.47 20.634 1.664 1.673 5.27 4.044 8.737 5.647l5.825 2.718-.208 2.579-.208 2.58-15.464 5.159-15.463 5.228-2.01 6.622c-1.11 3.695-4.23 14.64-7.004 24.399-2.773 9.689-5.409 18.054-5.825 18.473-.416.418-1.664 4.182-2.704 8.434-1.04 4.183-2.01 8.227-2.219 8.854-.346 1.185 2.427 1.255 51.66 1.255 49.301 0 52.075-.07 52.075-1.255 0-.627-3.259-4.252-7.281-8.016-4.022-3.765-7.281-7.25-7.281-7.808 0-.488 2.496-3.067 5.478-5.716 7.628-6.553 7.697-6.971 4.577-14.988-5.27-13.454-16.573-34.228-20.734-38.131-1.317-1.255-1.803-2.441-1.803-4.322 0-2.859.625-3.555 4.16-4.741 3.607-1.185 7.143-3.903 9.57-7.319 1.942-2.719 2.774-3.207 8.113-4.88 3.259-1.046 5.894-2.161 5.894-2.44 0-.348-1.248-2.161-2.774-3.973-2.981-3.625-3.536-6.204-1.525-6.832.624-.209 3.051-.558 5.339-.836 2.288-.209 4.369-.558 4.646-.767.624-.279-2.912-10.178-3.744-10.527-.278-.139-.555-.766-.555-1.463 0-.837.971-1.464 3.467-2.092 4.299-1.115 14.561-6.064 14.561-6.971 0-.418-1.317-1.394-2.912-2.23-8.875-4.532-16.087-9.76-14.631-10.596.277-.14 2.843-.976 5.617-1.813 2.774-.836 7.281-2.579 10.054-3.834 4.785-2.16 14.632-8.017 14.215-8.435-.277-.209-19.069-8.295-20.872-8.923-.832-.348-1.039-.766-.693-1.394.277-.557 4.854-5.019 10.124-9.898 5.201-4.95 9.5-9.202 9.5-9.481 0-.558-4.3-1.325-16.989-3.137-4.577-.697-8.599-1.394-8.876-1.673-.346-.279 2.844-6.413 7.073-13.593 6.865-11.782 8.183-14.291 7.489-14.291-.138 0-5.825 2.021-12.62 4.531-9.916 3.625-12.62 4.322-13.313 3.625-1.526-1.534-2.982-13.036-2.982-23.353V2.022L105.9 5.019c-6.587 3.555-15.393 10.457-19.485 15.267-1.525 1.882-3.12 3.415-3.397 3.415-.347 0-2.982-3.206-5.964-7.18C71.924 9.69 63.255 0 62.284 0c-.277 0-.831 3.067-1.248 6.762Zm1.942 174.693c-2.566 2.022-15.671 36.807-14.631 38.619.347.627 3.328 3.486 6.657 6.414 3.398 2.928 6.24 5.646 6.38 6.065.138.418-.694 1.952-1.873 3.415-1.11 1.464-2.08 2.231-2.08 1.743 0-.418.624-1.673 1.456-2.649l1.456-1.882-6.657-6.274c-4.645-4.392-6.656-6.762-6.656-7.877 0-2.231 7.904-23.562 12.758-34.506 1.18-2.65 2.15-3.974 2.982-3.974 1.11.069 1.11.139.208.906Z"/>
    <path d="M179.056 97.943c-19.485 3.555-30.233 11.292-44.17 31.997-3.051 4.461-3.259 5.019-3.259 9.341 0 3.345-.693 6.622-2.496 12.268-3.051 9.551-2.913 11.781 1.456 19.24 1.733 2.928 3.12 5.717 3.12 6.065 0 .419-.902 1.743-2.08 2.998-3.675 3.973-3.606 10.107.208 14.221 2.219 2.3 7.42 4.461 8.806 3.555.347-.209-.138-1.813-1.04-3.625-.971-1.743-1.733-3.694-1.664-4.322 0-.697.347-.488.763.628 1.178 2.579 6.656 11.083 9.361 14.429 5.339 6.692 16.85 13.454 27.598 16.313 3.259.836 9.014 1.603 13.868 1.812 4.576.209 7.696.627 6.934.906-4.161 1.464-23.299-1.255-32.105-4.601l-4.576-1.742-1.18 1.603c-4.368 5.786-9.361 18.961-10.609 27.884l-.346 2.649h42.991c40.634 0 42.992-.07 42.645-1.255-.208-.627-1.317-4.81-2.427-9.272-2.427-9.619-4.369-14.429-7.489-18.542-1.248-1.673-2.288-3.416-2.288-3.904.069-.418 1.803-2.092 3.953-3.625 3.883-2.788 9.222-8.435 12.134-12.896.971-1.464 2.497-2.649 3.884-3.067 1.178-.349 3.397-1.813 4.922-3.207 4.785-4.601 5.271-10.875 1.04-14.57-1.456-1.255-1.664-1.882-1.248-4.112.278-1.395.694-2.719.971-2.928.277-.209.902-2.231 1.387-4.532.693-3.345.693-5.925 0-13.105-.485-4.879-1.179-8.853-1.526-8.853-.346 0-.554-1.952-.485-4.392.139-3.834-.208-5.019-2.704-9.898-3.328-6.623-8.252-13.873-13.244-19.31-3.051-3.347-5.063-4.671-12.898-8.575-5.547-2.718-11.233-5.019-14.006-5.576-5.756-1.255-17.544-1.255-24.201 0ZM97.65 173.996c0 .209 1.317 2.161 2.981 4.322s3.952 5.577 5.2 7.459c3.26 5.228 10.818 21.54 13.037 28.024 2.426 6.9 2.219 7.389-5.062 13.593-2.774 2.37-5.062 4.88-5.062 5.437 0 .628 3.12 3.974 6.934 7.599 4.161 3.834 6.934 6.971 6.934 7.807 0 1.255.555 1.325 9.707 1.325 7.281 0 9.709-.21 9.709-.906 0-2.929-16.989-64.343-18.584-67.27-.277-.558-4.715-2.022-9.846-3.347-5.132-1.254-10.471-2.788-11.927-3.415-2.843-1.116-4.022-1.325-4.022-.628Z"/>
  </g>
  <defs>
    <clipPath id="a">
      <path fill="#fff" d="M0 0h250v250H0z"/>
    </clipPath>
  </defs>
</svg>